<svg xmlns="http://www.w3.org/2000/svg" xmlns:xlink="http://www.w3.org/1999/xlink" width="100" zoomAndPan="magnify"
    viewBox="0 0 375 374.999991" height="100" preserveAspectRatio="xMidYMid meet" version="1.0">

    <g fill="#121212" fill-opacity="1">
        <g transform="translate(37.500002, 176.010741)">
            <g>
                <path
                    d="M 42.921875 0 L 29.1875 0 L -2.28125 -58.71875 L 21.0625 -58.71875 L 35.359375 -27.015625 L 49.4375 -58.71875 L 63.40625 -58.71875 L 77.484375 -27.015625 L 91.796875 -58.71875 L 115.140625 -58.71875 L 83.671875 0 L 69.9375 0 L 56.421875 -30.328125 Z M 42.921875 0 " />
            </g>
        </g>
    </g>
    <g fill="#121212" fill-opacity="1">
        <g transform="translate(150.34954, 176.010741)">
            <g>
                <path
                    d="M 66.265625 -26.546875 L 23.6875 -26.546875 C 23.6875 -22.429688 25.019531 -19.378906 27.6875 -17.390625 C 30.363281 -15.410156 33.265625 -14.421875 36.390625 -14.421875 C 39.671875 -14.421875 42.265625 -14.859375 44.171875 -15.734375 C 46.085938 -16.609375 48.265625 -18.34375 50.703125 -20.9375 L 65.359375 -13.625 C 59.253906 -3.394531 49.101562 1.71875 34.90625 1.71875 C 26.050781 1.71875 18.457031 -1.3125 12.125 -7.375 C 5.789062 -13.445312 2.625 -20.753906 2.625 -29.296875 C 2.625 -37.847656 5.789062 -45.175781 12.125 -51.28125 C 18.457031 -57.382812 26.050781 -60.4375 34.90625 -60.4375 C 44.21875 -60.4375 51.789062 -57.742188 57.625 -52.359375 C 63.457031 -46.984375 66.375 -39.296875 66.375 -29.296875 C 66.375 -27.921875 66.335938 -27.003906 66.265625 -26.546875 Z M 24.265625 -37.765625 L 46.578125 -37.765625 C 46.117188 -40.816406 44.914062 -43.160156 42.96875 -44.796875 C 41.03125 -46.441406 38.535156 -47.265625 35.484375 -47.265625 C 32.117188 -47.265625 29.445312 -46.382812 27.46875 -44.625 C 25.488281 -42.875 24.421875 -40.585938 24.265625 -37.765625 Z M 24.265625 -37.765625 " />
            </g>
        </g>
    </g>
    <g fill="#121212" fill-opacity="1">
        <g transform="translate(219.364008, 176.010741)">
            <g>
                <path
                    d="M 67.296875 -51.390625 C 72.785156 -45.359375 75.53125 -37.992188 75.53125 -29.296875 C 75.53125 -20.597656 72.785156 -13.253906 67.296875 -7.265625 C 61.804688 -1.273438 54.828125 1.71875 46.359375 1.71875 C 38.566406 1.71875 32.15625 -1.066406 27.125 -6.640625 L 26.890625 -6.640625 L 26.890625 0 L 6.859375 0 L 6.859375 -98.421875 L 27.125 -98.421875 L 27.125 -53.109375 C 32.15625 -57.992188 38.566406 -60.4375 46.359375 -60.4375 C 54.828125 -60.4375 61.804688 -57.421875 67.296875 -51.390625 Z M 50.234375 -19.390625 C 52.753906 -21.953125 54.015625 -25.253906 54.015625 -29.296875 C 54.015625 -33.335938 52.695312 -36.65625 50.0625 -39.25 C 47.4375 -41.851562 44.175781 -43.15625 40.28125 -43.15625 C 36.46875 -43.15625 33.242188 -41.851562 30.609375 -39.25 C 27.984375 -36.65625 26.671875 -33.335938 26.671875 -29.296875 C 26.671875 -25.328125 27.945312 -22.046875 30.5 -19.453125 C 33.050781 -16.859375 36.3125 -15.5625 40.28125 -15.5625 C 44.40625 -15.5625 47.722656 -16.835938 50.234375 -19.390625 Z M 50.234375 -19.390625 " />
            </g>
        </g>
    </g>
    <g fill="#121212" fill-opacity="1">
        <g transform="translate(297.534625, 176.010741)">
            <g>
                <path
                    d="M 19.921875 -24.5 C 23.578125 -24.5 26.679688 -23.21875 29.234375 -20.65625 C 31.796875 -18.101562 33.078125 -14.992188 33.078125 -11.328125 C 33.078125 -7.742188 31.796875 -4.671875 29.234375 -2.109375 C 26.679688 0.441406 23.578125 1.71875 19.921875 1.71875 C 16.328125 1.71875 13.25 0.441406 10.6875 -2.109375 C 8.132812 -4.671875 6.859375 -7.742188 6.859375 -11.328125 C 6.859375 -14.992188 8.132812 -18.101562 10.6875 -20.65625 C 13.25 -23.21875 16.328125 -24.5 19.921875 -24.5 Z M 19.921875 -24.5 " />
            </g>
        </g>
    </g>
    <g fill="#004aad" fill-opacity="1">
        <g transform="translate(37.500002, 262.702352)">
            <g>
                <path
                    d="M 66.265625 -26.546875 L 23.6875 -26.546875 C 23.6875 -22.429688 25.019531 -19.378906 27.6875 -17.390625 C 30.363281 -15.410156 33.265625 -14.421875 36.390625 -14.421875 C 39.671875 -14.421875 42.265625 -14.859375 44.171875 -15.734375 C 46.085938 -16.609375 48.265625 -18.34375 50.703125 -20.9375 L 65.359375 -13.625 C 59.253906 -3.394531 49.101562 1.71875 34.90625 1.71875 C 26.050781 1.71875 18.457031 -1.3125 12.125 -7.375 C 5.789062 -13.445312 2.625 -20.753906 2.625 -29.296875 C 2.625 -37.847656 5.789062 -45.175781 12.125 -51.28125 C 18.457031 -57.382812 26.050781 -60.4375 34.90625 -60.4375 C 44.21875 -60.4375 51.789062 -57.742188 57.625 -52.359375 C 63.457031 -46.984375 66.375 -39.296875 66.375 -29.296875 C 66.375 -27.921875 66.335938 -27.003906 66.265625 -26.546875 Z M 24.265625 -37.765625 L 46.578125 -37.765625 C 46.117188 -40.816406 44.914062 -43.160156 42.96875 -44.796875 C 41.03125 -46.441406 38.535156 -47.265625 35.484375 -47.265625 C 32.117188 -47.265625 29.445312 -46.382812 27.46875 -44.625 C 25.488281 -42.875 24.421875 -40.585938 24.265625 -37.765625 Z M 24.265625 -37.765625 " />
            </g>
        </g>
    </g>
    <g fill="#004aad" fill-opacity="1">
        <g transform="translate(106.51447, 262.702352)">
            <g>
                <path
                    d="M 63.640625 -58.71875 L 34.5625 -15.453125 L 61.34375 -15.453125 L 61.34375 0 L 0.578125 0 L 29.640625 -43.265625 L 5.375 -43.265625 L 5.375 -58.71875 Z M 63.640625 -58.71875 " />
            </g>
        </g>
    </g>
</svg>